<?xml version="1.0" encoding="utf-8"?>
<!-- Generator: Adobe Illustrator 27.5.0, SVG Export Plug-In . SVG Version: 6.00 Build 0)  -->
<svg version="1.1" xmlns="http://www.w3.org/2000/svg" xmlns:xlink="http://www.w3.org/1999/xlink" x="0px" y="0px"
	 viewBox="0 0 3710 3710" style="enable-background:new 0 0 3710 3710;" xml:space="preserve">
<g id="Background">
	<g>
		<g>
			<rect style="fill:#FFFFFF;" width="3710" height="3710"/>
		</g>
	</g>
</g>
<g id="Illustration">
	<g>
		<path style="fill:#F4F7FA;" d="M1107.528,600.744c-97.671,139.821,16.85,366.505-128.076,471.661
			c-141.075,102.363-314.381-65.423-447.335,22.69c-197.23,130.711-161.212,728.818,127.149,1100.433
			c86.72,111.758,159.179,155.241,191.271,281.633c68.911,271.397-173.276,432.841-127.188,567.069
			c103.774,302.233,1699.732,555.843,2340.102-352.468c299.079-424.219,343.828-1036.795,76.61-1502.049
			C2657.203,349.006,1326.685,287.011,1107.528,600.744z"/>
		<g>
			<linearGradient id="SVGID_1_" gradientUnits="userSpaceOnUse" x1="2279.5933" y1="1862.5682" x2="1368.3315" y2="1152.6311">
				<stop  offset="0" style="stop-color:#FFFFFF"/>
				<stop  offset="0.9964" style="stop-color:#EBEFF2"/>
			</linearGradient>
			<path style="fill:url(#SVGID_1_);" d="M510.456,769.833v936.341c0,31.087,26.323,56.437,58.754,56.622l1926.799,11.034
				c29.795,0.171,53.919-23.802,53.919-53.546V824.392L510.456,769.833z"/>
			<path style="fill:#BFC8D6;" d="M2496.009,709.084L569.21,652.688c-32.432-0.949-58.754,23.48-58.754,54.567V803.2
				l2039.473,53.117v-91.8C2549.928,734.773,2525.803,709.956,2496.009,709.084z"/>
			<g>
				<g>
					<g>
						<path style="fill:#BFC8D6;" d="M989.894,1275.8l107.453-360.414c162.07,54.427,278.849,203.653,279.717,376.934
							L989.894,1275.8z"/>
					</g>
					<g>
						<path style="fill:#FFFFFF;" d="M1277.314,1313.526c-5.994,82.457-46.887,155.146-108.566,204.495l-168.469-216.511
							L1277.314,1313.526z"/>
						<path style="fill:#FFFFFF;" d="M965.834,1263c-65.224-61.411-144.032-135.773-206.785-195.251
							c55.665-49.85,130.795-79.478,213.227-77.64c24.962,0.557,49.203,3.972,72.394,9.904L965.834,1263z"/>
						<path style="fill:#FFFFFF;" d="M952.238,1285.508l-237.115,164.426c-33.272-48.037-52.709-105.634-52.709-167.332
							c0-76.087,29.551-144.982,78.147-196.789c17.396,16.473,36.728,34.753,57.904,54.753
							C862.544,1201.088,926.833,1261.604,952.238,1285.508z"/>
						<path style="fill:#FFFFFF;" d="M959.09,1312.4l-4.573,271.914c-90.104-5.813-170.156-48.938-223.599-113.537L959.09,1312.4z"
							/>
						<path style="fill:#FFFFFF;" d="M985.285,1324.306l162.683,208.928c-47.439,31.709-104.867,50.647-167.063,51.706
							L985.285,1324.306z"/>
					</g>
				</g>
				<polygon style="fill:#BFC8D6;" points="2409.933,1112.459 1431.606,1092.588 1431.606,1000.986 2409.933,1022.793 				"/>
				<polygon style="fill:#BFC8D6;" points="2409.933,1274.709 1431.606,1258.342 1431.606,1166.741 2409.933,1185.045 				"/>
				<polygon style="fill:#BFC8D6;" points="2409.933,1436.96 1431.606,1424.096 1431.606,1332.495 2409.933,1347.295 				"/>
				<polygon style="fill:#BFC8D6;" points="2409.933,1599.211 1431.606,1589.849 1431.606,1498.249 2409.933,1509.546 				"/>
			</g>
			<path style="fill:#FFFFFF;" d="M645.237,729.772c0,13.78-11.646,24.636-26.02,24.246c-14.382-0.391-26.048-11.891-26.048-25.687
				c0-13.797,11.666-24.651,26.048-24.246C633.591,704.49,645.237,715.99,645.237,729.772z"/>
		</g>
		<g>
			<g>
				<path style="fill:#EBEFF2;" d="M913.086,2075.921v1046.792c0,34.754,29.428,62.303,65.684,61.536l2154.086-45.572
					c33.309-0.705,60.28-28.231,60.28-61.483V2075.622L913.086,2075.921z"/>
				<path style="fill:#BFC8D6;" d="M3132.857,1948.332l-2154.086-5.14c-36.256-0.087-65.684,28.015-65.684,62.769v107.262
					l2280.05-1.91v-102.63C3193.137,1975.431,3166.166,1948.411,3132.857,1948.332z"/>
				<path style="fill:#FFFFFF;" d="M1063.767,2027.083c0,15.406-13.02,27.893-29.088,27.888
					c-16.079-0.004-29.121-12.511-29.121-27.935c0-15.424,13.042-27.909,29.121-27.888
					C1050.747,1999.17,1063.767,2011.676,1063.767,2027.083z"/>
			</g>
			<g>
				<polygon style="fill:#FFFFFF;" points="1366.027,3039.688 1200.252,3042.763 1200.252,2261.375 1366.027,2260.769 				"/>
				<polygon style="fill:#BFC8D6;" points="1366.027,3039.688 1200.252,3042.763 1200.252,2671.779 1366.027,2669.875 				"/>
				<polygon style="fill:#FFFFFF;" points="1594.938,3035.442 1430.612,3038.49 1430.612,2260.531 1594.938,2259.93 				"/>
				<polygon style="fill:#BFC8D6;" points="1594.938,3035.442 1430.612,3038.49 1430.612,2853.811 1594.938,2851.344 				"/>
				<polygon style="fill:#FFFFFF;" points="1821.854,3031.232 1658.959,3034.253 1658.959,2259.695 1821.854,2259.098 				"/>
				<polygon style="fill:#BFC8D6;" points="1821.854,3031.232 1658.959,3034.253 1658.959,2937.721 1821.854,2935.001 				"/>
				<polygon style="fill:#FFFFFF;" points="2046.802,3027.06 1885.318,3030.055 1885.318,2258.865 2046.802,2258.273 				"/>
				<polygon style="fill:#BFC8D6;" points="2046.802,3027.06 1885.318,3030.055 1885.318,2425.918 2046.802,2424.805 				"/>
				<polygon style="fill:#FFFFFF;" points="2269.807,3022.923 2109.717,3025.892 2109.717,2258.042 2269.807,2257.457 				"/>
				<polygon style="fill:#BFC8D6;" points="2269.807,3022.923 2109.717,3025.892 2109.717,2492.727 2269.807,2491.412 				"/>
				<polygon style="fill:#FFFFFF;" points="2490.895,3018.821 2332.181,3021.765 2332.181,2257.227 2490.895,2256.646 				"/>
				<polygon style="fill:#BFC8D6;" points="2490.895,3018.821 2332.181,3021.765 2332.181,2368.392 2490.895,2367.467 				"/>
				<polygon style="fill:#FFFFFF;" points="2710.09,3014.755 2552.734,3017.674 2552.734,2256.419 2710.09,2255.843 				"/>
				<polygon style="fill:#BFC8D6;" points="2710.09,3014.755 2552.734,3017.674 2552.734,2550.078 2710.09,2548.598 				"/>
				<polygon style="fill:#FFFFFF;" points="2927.416,3010.724 2771.401,3013.618 2771.401,2255.618 2927.416,2255.046 				"/>
				<polygon style="fill:#BFC8D6;" points="2927.416,3010.724 2771.401,3013.618 2771.401,2750.455 2927.416,2748.367 				"/>
			</g>
		</g>
		
			<linearGradient id="SVGID_00000114756793056236910880000001471709647394212779_" gradientUnits="userSpaceOnUse" x1="2130.9412" y1="1675.1295" x2="1205.2341" y2="3434.8103" gradientTransform="matrix(0.9895 0.1444 -0.1444 0.9895 -220.1309 -262.8236)">
			<stop  offset="0" style="stop-color:#FF9085"/>
			<stop  offset="1" style="stop-color:#FB6FBB"/>
		</linearGradient>
		<path style="fill:url(#SVGID_00000114756793056236910880000001471709647394212779_);" d="M2134.422,1458.851
			c-91.924-71.733-185.734,17.569-535.529,58.666c-491.908,57.793-677.836-75.169-809.959,64.224
			c-118.881,125.423,10.138,255.758-122.114,524.352c-114.241,232.013-289.909,296.014-259.991,392.758
			c39.299,127.076,360.792,76.172,397.208,194.769c43.517,141.724-384.192,316.676-350.233,455.595
			c29.935,122.459,413.083,194.284,746.377,93.708c525.336-158.526,757.926-694.392,845.068-895.158
			C2061.942,2309.31,2351.591,1628.318,2134.422,1458.851z"/>
		<g>
			
				<linearGradient id="SVGID_00000109725486697797311320000003312413139598451891_" gradientUnits="userSpaceOnUse" x1="2646.1448" y1="-3272.6165" x2="6037.2656" y2="3016.9084" gradientTransform="matrix(0.905 0.4254 -0.4254 0.905 -1586.9197 -1256.0155)">
				<stop  offset="0" style="stop-color:#AB316D"/>
				<stop  offset="1" style="stop-color:#792D3D"/>
			</linearGradient>
			<polygon style="fill:url(#SVGID_00000109725486697797311320000003312413139598451891_);" points="2228.127,783.676 
				2240.853,675.095 3081.143,528.044 3021.773,1217.99 3009.047,1326.571 2790.844,1188.107 2352.868,1850.53 1766.78,1410.78 
				1779.506,1302.199 2419.895,928.46 			"/>
			
				<linearGradient id="SVGID_00000074412921445383536120000005109677080749865602_" gradientUnits="userSpaceOnUse" x1="2754.1028" y1="588.1949" x2="2166.1106" y2="1705.9121">
				<stop  offset="0" style="stop-color:#FF9085"/>
				<stop  offset="1" style="stop-color:#FB6FBB"/>
			</linearGradient>
			<polygon style="fill:url(#SVGID_00000074412921445383536120000005109677080749865602_);" points="2240.853,675.095 
				3093.868,419.463 3021.773,1217.99 2803.571,1079.526 2365.594,1741.949 1779.506,1302.199 2432.621,819.878 			"/>
		</g>
		<g>
			
				<linearGradient id="SVGID_00000056396133280861233160000002659395320931994286_" gradientUnits="userSpaceOnUse" x1="3801.7568" y1="838.912" x2="3547.3132" y2="1377.1577" gradientTransform="matrix(0.8944 0.4472 -0.4472 0.8944 -491.4139 -1482.3767)">
				<stop  offset="0" style="stop-color:#FFC444"/>
				<stop  offset="0.9964" style="stop-color:#F36F56"/>
			</linearGradient>
			<path style="fill:url(#SVGID_00000056396133280861233160000002659395320931994286_);" d="M2388.406,1048.788
				c0.593-3.957,1.857-9.892,4.894-16.442c7.718-16.643,19.766-21.906,50.284-41.827c26.135-17.059,51.508-35.529,51.508-35.529v0
				c0,0,15.117,2.491-1.584,21.644c-16.703,19.154-16.703,19.154-16.703,19.154s-17.501,18.593-4.986,27.826
				c12.516,9.232,13.616,34.391-1.698,46.999l-1.262,1.039c-9,7.41-20.569,10.957-32.175,9.866l-35.379-3.328L2388.406,1048.788z"/>
			<g>
				
					<linearGradient id="SVGID_00000070077441047302900210000016637422278693610156_" gradientUnits="userSpaceOnUse" x1="-1913.4526" y1="2149.2537" x2="-1903.6528" y2="2003.3472" gradientTransform="matrix(-0.6446 -0.7645 -0.7645 0.6446 1271.4163 -583.4687)">
					<stop  offset="0" style="stop-color:#FFC444"/>
					<stop  offset="0.9964" style="stop-color:#F36F56"/>
				</linearGradient>
				<path style="fill:url(#SVGID_00000070077441047302900210000016637422278693610156_);" d="M968.66,2183.858
					c0,0-23.482-15.987-55.574,7.268c3.12,3.221,9.608,11.395,9.608,11.395s20.729-20.006,37.543-8.727
					C961.79,2190.438,968.66,2183.858,968.66,2183.858z"/>
				
					<linearGradient id="SVGID_00000041291449144183263080000008378130401621441975_" gradientUnits="userSpaceOnUse" x1="-1973.3765" y1="2100.0659" x2="-1966.3652" y2="1995.6769" gradientTransform="matrix(-0.6446 -0.7645 -0.7645 0.6446 1271.4163 -583.4687)">
					<stop  offset="0.1" style="stop-color:#311944"/>
					<stop  offset="0.267" style="stop-color:#371B47"/>
					<stop  offset="0.4803" style="stop-color:#462150"/>
					<stop  offset="0.7186" style="stop-color:#612A5F"/>
					<stop  offset="0.9736" style="stop-color:#853774"/>
					<stop  offset="1" style="stop-color:#893976"/>
				</linearGradient>
				<path style="fill:url(#SVGID_00000041291449144183263080000008378130401621441975_);" d="M1035.184,2259.072
					c-5.941,4.117-11.882,8.235-17.823,12.352c-6.245-12.419-12.91-26.14-22.63-38.737c-12.637-16.378-26.373-29.573-39.9-40.236
					c0.211-1.159,0.856-3.783,3.104-6.637c3.621-4.599,8.534-6.154,9.419-6.419c7.56,4.867,15.261,10.563,22.851,17.225
					C1011.969,2215.722,1025.368,2238.269,1035.184,2259.072z"/>
				
					<linearGradient id="SVGID_00000057147330536894250970000014937465175711628197_" gradientUnits="userSpaceOnUse" x1="-2017.3881" y1="2025.0067" x2="-1938.5691" y2="2067.2639" gradientTransform="matrix(-0.6446 -0.7645 -0.7645 0.6446 1271.4163 -583.4687)">
					<stop  offset="0.1" style="stop-color:#311944"/>
					<stop  offset="0.267" style="stop-color:#371B47"/>
					<stop  offset="0.4803" style="stop-color:#462150"/>
					<stop  offset="0.7186" style="stop-color:#612A5F"/>
					<stop  offset="0.9736" style="stop-color:#853774"/>
					<stop  offset="1" style="stop-color:#893976"/>
				</linearGradient>
				<path style="fill:url(#SVGID_00000057147330536894250970000014937465175711628197_);" d="M1031.238,2264.065
					c1.964-1.709,4.303-3.977,3.945-4.993c-0.337-0.958-2.958-0.416-4.312,0.008c-0.564,0.176-1.897,0.641-5.311,3.108
					c-4.401,3.18-6.125,5.253-7.099,6.641c-0.585,0.835-1.464,2.108-1.102,2.596c0.291,0.392,1.284,0.107,3.086-0.587
					C1022.874,2269.901,1026.669,2268.04,1031.238,2264.065z"/>
				
					<linearGradient id="SVGID_00000101066832010966114140000008360736677146502079_" gradientUnits="userSpaceOnUse" x1="-2141.0984" y1="2154.1204" x2="-2184.6565" y2="1755.9594" gradientTransform="matrix(-0.6446 -0.7645 -0.7645 0.6446 1271.4163 -583.4687)">
					<stop  offset="0.1" style="stop-color:#311944"/>
					<stop  offset="0.6853" style="stop-color:#6D2F66"/>
					<stop  offset="1" style="stop-color:#893976"/>
				</linearGradient>
				<path style="fill:url(#SVGID_00000101066832010966114140000008360736677146502079_);" d="M1083.022,2406.351
					c0,0,9.702-9.088-5.537-27.16c-4.25-1.286-12.669,5.57-12.669,5.57L1083.022,2406.351z"/>
				
					<linearGradient id="SVGID_00000137124537950404251340000012072075920643555989_" gradientUnits="userSpaceOnUse" x1="-1946.4912" y1="2321.4734" x2="-2241.3306" y2="2157.301" gradientTransform="matrix(-0.6446 -0.7645 -0.7645 0.6446 1271.4163 -583.4687)">
					<stop  offset="0" style="stop-color:#311944"/>
					<stop  offset="1" style="stop-color:#893976"/>
				</linearGradient>
				<path style="fill:url(#SVGID_00000137124537950404251340000012072075920643555989_);" d="M897.034,2590.632l-68.453-26.904
					l72.968-112.8l173.334-61.672l8.138,17.094l-171.231,180.73C907.915,2591.172,902.019,2592.591,897.034,2590.632z"/>
				
					<linearGradient id="SVGID_00000075127785748000637530000009860534402824753541_" gradientUnits="userSpaceOnUse" x1="-2211.9377" y1="2095.0518" x2="-2124.293" y2="2242.0254" gradientTransform="matrix(-0.6446 -0.7645 -0.7645 0.6446 1271.4163 -583.4687)">
					<stop  offset="0" style="stop-color:#311944"/>
					<stop  offset="1" style="stop-color:#893976"/>
				</linearGradient>
				<path style="opacity:0.3;fill:url(#SVGID_00000075127785748000637530000009860534402824753541_);" d="M901.549,2450.929
					l173.334-61.672l8.138,17.094c-14.53,6.353-34.853,20.661-46.045,28.767c-47.631,34.498-69.378,34.026-96.168,65.728
					c-22.276,26.359-17.652,39.006-35.864,52.916c-19.835,15.149-46.287,16.163-71.312,11.951l-5.051-1.985L901.549,2450.929z"/>
				
					<linearGradient id="SVGID_00000039812411523559915440000010500181012644078494_" gradientUnits="userSpaceOnUse" x1="-1961.6027" y1="1919.2485" x2="-1929.7721" y2="2346.4509" gradientTransform="matrix(-0.6446 -0.7645 -0.7645 0.6446 1271.4163 -583.4687)">
					<stop  offset="0.1" style="stop-color:#311944"/>
					<stop  offset="0.6853" style="stop-color:#6D2F66"/>
					<stop  offset="1" style="stop-color:#893976"/>
				</linearGradient>
				<polygon style="fill:url(#SVGID_00000039812411523559915440000010500181012644078494_);" points="1074.884,2389.257 
					845.898,2117.689 601.091,2250.958 828.582,2563.728 				"/>
				<g style="opacity:0.2;">
					
						<linearGradient id="SVGID_00000083790223967076447260000003419584411462461119_" gradientUnits="userSpaceOnUse" x1="-2030.4646" y1="2153.1367" x2="-1764.8604" y2="2357.783" gradientTransform="matrix(-0.6446 -0.7645 -0.7645 0.6446 1271.4163 -583.4687)">
						<stop  offset="0" style="stop-color:#311944"/>
						<stop  offset="1" style="stop-color:#893976"/>
					</linearGradient>
					<path style="fill:url(#SVGID_00000083790223967076447260000003419584411462461119_);" d="M845.898,2117.689l77.141,91.486
						c-2.857,5.292-6.604,12.857-10.13,22.263c-38.371,102.356,31.422,203.759,18.02,212.165
						c-20.032,12.563-170.488-217.426-199.574-202.012c-14.041,7.441-3.894,74.241,24.693,128.881
						c34.228,65.422,83.793,92.913,79.011,143.027c-1.619,16.968-9.13,30.189-14.851,38.368l-219.117-300.907L845.898,2117.689z"/>
				</g>
				
					<linearGradient id="SVGID_00000124127395939871793730000012040922207059770012_" gradientUnits="userSpaceOnUse" x1="-2100.0159" y1="2138.1423" x2="-1985.975" y2="2133.7134" gradientTransform="matrix(-0.6446 -0.7645 -0.7645 0.6446 1271.4163 -583.4687)">
					<stop  offset="0.1" style="stop-color:#311944"/>
					<stop  offset="0.6853" style="stop-color:#6D2F66"/>
					<stop  offset="1" style="stop-color:#893976"/>
				</linearGradient>
				<path style="fill:url(#SVGID_00000124127395939871793730000012040922207059770012_);" d="M1077.486,2379.19
					c2.58,3.06,6.527,7.05,8.01,13.759c0.317,1.432,0.483,2.792,0.55,4.053l-1.126-2.715c-2.003-4.206-7.209-7.944-11.793-7.115
					c-5.634,1.02-15.077,7.64-19.829,10.831c-13.517,9.078-97.537,65.663-97.537,65.663c-7.018,4.849-16.586,3.478-21.959-3.148
					l-201.264-262.51c-1.581-1.949-2.645-4.296-2.896-6.793c-0.523-5.21,2.143-10.01,6.517-12.388l102.488-64.521
					c6.183-3.362,13.877-1.912,18.414,3.468L1077.486,2379.19z"/>
				
					<linearGradient id="SVGID_00000016063352669483055770000012841844056503798436_" gradientUnits="userSpaceOnUse" x1="-1926.2766" y1="2478.8123" x2="-1961.4587" y2="2083.4343" gradientTransform="matrix(-0.6446 -0.7645 -0.7645 0.6446 1271.4163 -583.4687)">
					<stop  offset="0.1" style="stop-color:#311944"/>
					<stop  offset="0.267" style="stop-color:#371B47"/>
					<stop  offset="0.4803" style="stop-color:#462150"/>
					<stop  offset="0.7186" style="stop-color:#612A5F"/>
					<stop  offset="0.9736" style="stop-color:#853774"/>
					<stop  offset="1" style="stop-color:#893976"/>
				</linearGradient>
				<path style="fill:url(#SVGID_00000016063352669483055770000012841844056503798436_);" d="M1075.206,2376.487
					c2.579,3.059,6.013,6.373,8.453,11.236c0.658,1.311,1.65,3.46,1.716,4.721c0,0-5.399-10.118-14.529-7.974
					c-5.574,1.309-15.077,7.64-19.829,10.831c-13.517,9.078-97.537,65.663-97.537,65.663c-7.018,4.849-16.587,3.477-21.959-3.148
					l-210.494-259.597c-1.581-1.949-2.645-4.296-2.896-6.793c-0.523-5.21,2.143-10.01,6.517-12.388l111.718-67.434
					c6.183-3.362,13.877-1.912,18.414,3.468L1075.206,2376.487z"/>
				
					<linearGradient id="SVGID_00000072970215577878688150000015184625198220788921_" gradientUnits="userSpaceOnUse" x1="-1908.9233" y1="2572.4077" x2="-1968.8539" y2="2024.5851" gradientTransform="matrix(-0.6446 -0.7645 -0.7645 0.6446 1271.4163 -583.4687)">
					<stop  offset="0" style="stop-color:#311944"/>
					<stop  offset="1" style="stop-color:#893976"/>
				</linearGradient>
				<path style="opacity:0.1;fill:url(#SVGID_00000072970215577878688150000015184625198220788921_);" d="M724.648,2179.036
					l111.718-67.434c6.183-3.362,13.877-1.912,18.414,3.468l220.426,261.417c2.579,3.059,6.013,6.373,8.453,11.236
					c0.658,1.311,1.65,3.46,1.716,4.721c0,0-5.399-10.118-14.529-7.974c-0.878,0.206-1.862,0.548-2.901,0.972
					c-21.811-24.086-42.113-49.445-64.478-73.063c-44.138-46.751-85.984-96.38-142.686-127.82
					c-18.137-10.057-46.98-3.115-52.959,8.803c-4.311,8.594,4.564,18.033-1.39,28.959c-6.262,11.491-19.935,8.128-23.399,17.295
					c-3.63,9.608,9.434,18.474,20.402,41.413c6.043,12.639,8.768,23.943,10.119,31.3l-92.527-114.111
					c-1.581-1.949-2.645-4.296-2.896-6.793C717.609,2186.214,720.274,2181.414,724.648,2179.036z"/>
				<g>
					
						<linearGradient id="SVGID_00000183245105036575574090000006645544977593027232_" gradientUnits="userSpaceOnUse" x1="-1816.0048" y1="2285.9001" x2="-2011.478" y2="2183.7209" gradientTransform="matrix(-0.6446 -0.7645 -0.7645 0.6446 1271.4163 -583.4687)">
						<stop  offset="0" style="stop-color:#FFC444"/>
						<stop  offset="0.9964" style="stop-color:#F36F56"/>
					</linearGradient>
					<path style="fill:url(#SVGID_00000183245105036575574090000006645544977593027232_);" d="M797.82,2326.512l20.122,37.766
						l2.603,3.586c2.623,3.613,7.71,4.335,11.284,1.575l33.791-26.09c3.574-2.76,4.162-7.865,1.33-11.316l-2.818-3.434
						l-30.754-29.088c-2.549-3.106-3.276-6.921-6.628-4.333l-31.69,24.469C791.708,2322.235,795.459,2323.26,797.82,2326.512z"/>
					
						<linearGradient id="SVGID_00000052813952543765626920000002873489363072891312_" gradientUnits="userSpaceOnUse" x1="-1991.7937" y1="2199.4182" x2="-1790.3979" y2="2271.4863" gradientTransform="matrix(-0.6446 -0.7645 -0.7645 0.6446 1271.4163 -583.4687)">
						<stop  offset="0" style="stop-color:#FFC444"/>
						<stop  offset="0.9964" style="stop-color:#F36F56"/>
					</linearGradient>
					<path style="fill:url(#SVGID_00000052813952543765626920000002873489363072891312_);" d="M791.254,2327.887l27.302,37.618
						c2.622,3.613,7.71,4.335,11.284,1.575l33.791-26.09c3.574-2.76,4.163-7.865,1.33-11.316l-29.486-35.932
						c-2.549-3.106-7.362-3.511-10.714-0.923l-31.69,24.469C789.719,2319.877,788.893,2324.635,791.254,2327.887z"/>
				</g>
			</g>
			
				<linearGradient id="SVGID_00000157296747243875955410000013635135513208505508_" gradientUnits="userSpaceOnUse" x1="-1990.1476" y1="1991.77" x2="-1915.0139" y2="2059.748" gradientTransform="matrix(-0.6446 -0.7645 -0.7645 0.6446 1271.4163 -583.4687)">
				<stop  offset="0" style="stop-color:#FFC444"/>
				<stop  offset="0.9964" style="stop-color:#F36F56"/>
			</linearGradient>
			<path style="fill:url(#SVGID_00000157296747243875955410000013635135513208505508_);" d="M1033.378,2209.263
				c0,0-0.191,23.628-7.43,32.005c0,0-16.057-19.565-31.218-8.58c0,0,16.482,16.297,14.424,22.741
				c-2.058,6.444-28.392-5.979-37.434-26.106c-9.041-20.126,24.549-45.291,37.526-48.678
				C1022.224,2177.257,1033.378,2209.263,1033.378,2209.263z"/>
			<g>
				
					<linearGradient id="SVGID_00000108279859029780272990000007420108643068417155_" gradientUnits="userSpaceOnUse" x1="2760.7527" y1="3740.238" x2="2683.115" y2="3283.0369" gradientTransform="matrix(0.924 0.3823 -0.3823 0.924 -334.882 -1111.1584)">
					<stop  offset="0" style="stop-color:#AA80F9"/>
					<stop  offset="0.9964" style="stop-color:#6165D7"/>
				</linearGradient>
				<path style="fill:url(#SVGID_00000108279859029780272990000007420108643068417155_);" d="M787.091,3218.906
					c1.358-8.727,7.038-18.802,16.897-23.058c13.289-5.734,28.559,1.532,36.52,10.023c4.64,4.945,7.369,10.916,9.523,50.113
					c2.277,41.428-0.102,46.971-4.073,49.022c-8.077,4.169-21.331-6.855-24.186-9.231c-9.498-7.895-10.022-14.165-23.775-44.48
					C788.671,3230.745,785.849,3226.871,787.091,3218.906z"/>
				
					<linearGradient id="SVGID_00000049207750098186177820000003912601593101093284_" gradientUnits="userSpaceOnUse" x1="2714.8818" y1="3562.7627" x2="2740.7617" y2="3292.4624" gradientTransform="matrix(0.924 0.3823 -0.3823 0.924 -334.882 -1111.1584)">
					<stop  offset="0" style="stop-color:#FFC444"/>
					<stop  offset="0.9964" style="stop-color:#F36F56"/>
				</linearGradient>
				<path style="fill:url(#SVGID_00000049207750098186177820000003912601593101093284_);" d="M820.047,3169.259l-12.778,41.64
					c7.163,8.52,12.986,10.481,17.774,7.354l24.236-36.899L820.047,3169.259z"/>
				
					<linearGradient id="SVGID_00000094594307223972022240000017954033551442742146_" gradientUnits="userSpaceOnUse" x1="7076.2778" y1="-431.3476" x2="6998.6396" y2="-888.554" gradientTransform="matrix(-0.1554 0.9878 -0.9878 -0.1554 1822.9454 -4040.0378)">
					<stop  offset="0" style="stop-color:#AA80F9"/>
					<stop  offset="0.9964" style="stop-color:#6165D7"/>
				</linearGradient>
				<path style="fill:url(#SVGID_00000094594307223972022240000017954033551442742146_);" d="M1259.81,2967.426
					c7.48-4.699,18.811-7.016,28.489-2.365c13.042,6.271,17.571,22.563,16.383,34.141c-0.692,6.746-3.409,12.722-31.588,40.055
					c-29.782,28.885-35.527,30.728-39.68,29.073c-8.444-3.363-8.812-20.598-8.891-24.314c-0.27-12.346,4.12-16.857,17.986-47.118
					C1251.909,2976.384,1252.983,2971.713,1259.81,2967.426z"/>
				
					<linearGradient id="SVGID_00000042711133035605419250000004735119061684589986_" gradientUnits="userSpaceOnUse" x1="5751.0308" y1="1981.2046" x2="5776.9092" y2="1710.9175" gradientTransform="matrix(0.4725 0.8813 -0.8813 0.4725 258.969 -2996.0493)">
					<stop  offset="0" style="stop-color:#FFC444"/>
					<stop  offset="0.9964" style="stop-color:#F36F56"/>
				</linearGradient>
				<path style="fill:url(#SVGID_00000042711133035605419250000004735119061684589986_);" d="M1322.636,2952.699l-36.271,24.114
					c0.141,11.129,3.405,16.337,9.089,16.953l42.131-13.183L1322.636,2952.699z"/>
				
					<linearGradient id="SVGID_00000163756425815041881510000003426981105608133010_" gradientUnits="userSpaceOnUse" x1="2831.7629" y1="3537.9392" x2="3234.3325" y2="2025.4282" gradientTransform="matrix(0.924 0.3823 -0.3823 0.924 -334.882 -1111.1584)">
					<stop  offset="0" style="stop-color:#444B8C"/>
					<stop  offset="0.9964" style="stop-color:#26264F"/>
				</linearGradient>
				<path style="fill:url(#SVGID_00000163756425815041881510000003426981105608133010_);" d="M806.549,3172.86
					c14.055,6.835,28.113,13.663,42.169,20.5c92.126-136.267,188.69-274.797,289.885-415.197
					c110.913-153.885,221.475-301.802,331.112-443.834c21.799,16.448,107.885,85.314,123.049,200.926
					c16.879,128.701-61.026,262.778-196.241,329.221c-63.73,27.197-90.046,78.384-78.75,102.304
					c10.103,21.394,55.27,31.517,105.767,16.923c241.076-42.819,419.456-221.333,442.543-427.991
					c21.266-190.358-97.241-332.912-122.958-362.5c-126.482-47.788-252.968-95.565-379.449-143.353
					c-74.989,70.906-123.538,137.982-154.191,186.591c-61.602,97.688-71.978,154.173-159.722,327.725
					c-16.951,33.528-27.446,52.49-34.555,66.02C964.107,2727.448,893.19,2889.348,806.549,3172.86z"/>
				
					<linearGradient id="SVGID_00000176759098308397605890000013576578356067942555_" gradientUnits="userSpaceOnUse" x1="2674.4563" y1="3496.0703" x2="3077.0256" y2="1983.5596" gradientTransform="matrix(0.924 0.3823 -0.3823 0.924 -334.882 -1111.1584)">
					<stop  offset="0" style="stop-color:#444B8C"/>
					<stop  offset="0.9964" style="stop-color:#26264F"/>
				</linearGradient>
				<path style="opacity:0.3;fill:url(#SVGID_00000176759098308397605890000013576578356067942555_);" d="M1036.582,2851.761
					c61.486-116.368,16.767-131.945,80.38-228.133c58.531-88.501,104.853-88.117,184.963-198.87
					c64.297-88.895,55.299-117.952,91.516-153.511c44.747-43.935,172.623-74.201,373.339-20.126
					c4.885-19.531-27.979-39.259-23.655-57.91c-126.483-47.789-252.968-95.565-379.449-143.353
					c-74.989,70.906-123.537,137.982-154.191,186.591c-61.601,97.688-71.978,154.173-159.722,327.725
					c-45.347,89.689-49.02,122.221-79.566,181.613c-50.587,98.351-103.444,241.457-163.648,427.072
					c14.055,6.835,28.116,13.664,42.17,20.5c2.678-3.961,5.446-7.968,8.134-11.932c-2.395-14.813-3.529-30.807-2.203-47.863
					C863.22,3023.337,959.741,2997.195,1036.582,2851.761z"/>
			</g>
			
				<linearGradient id="SVGID_00000127732407209482074850000004179911823232316554_" gradientUnits="userSpaceOnUse" x1="2740.7844" y1="1160.9626" x2="1925.0292" y2="2239.4868" gradientTransform="matrix(0.9845 0.1752 -0.1752 0.9845 -225.5339 -480.8537)">
				<stop  offset="0" style="stop-color:#AA80F9"/>
				<stop  offset="0.9964" style="stop-color:#6165D7"/>
			</linearGradient>
			<path style="fill:url(#SVGID_00000127732407209482074850000004179911823232316554_);" d="M995.057,2184.488
				c16.642,6.13,33.286,12.252,49.928,18.381c16.337-30.268,40.369-76.007,67.589-132.748
				c31.122-64.881,48.714-107.26,55.752-122.699c27.997-61.429,92.441-143.142,254.581-227.721
				c-1.792,37.109-8.09,97.644-32.967,166.449c-71.363,197.374-220.745,255.745-196.573,339.517
				c17.103,59.274,111.372,97.565,176.051,85.662c38.362-7.06,37.05-26.392,97.961-51.411
				c44.595-18.318,84.233-22.905,161.69-31.332c112.711-12.261,104.613-1.743,124.555-10.26
				c47.427-20.254,153.316-359.64,153.316-359.64c19.399-62.224,52.703-147.441,113.457-243.988
				c61.432-37.665,159.569-108.475,245.865-227.516c89.68-123.708,126.209-243.827,142.211-315.024
				c-3.62-15.084-7.24-30.169-10.86-45.253c-66.47,28.886-163.823,79.864-259.788,169.457
				c-74.447,69.505-64.929,84.639-113.758,117.428c-119.13,79.995-224.341,22.517-440.354,51.375
				c-105.68,14.118-198.024,43.576-243.349,63.781C1057.863,1554.883,1006.494,2032.61,995.057,2184.488z"/>
			
				<linearGradient id="SVGID_00000170966721947959412250000010188953602829472400_" gradientUnits="userSpaceOnUse" x1="2747.2139" y1="1159.5984" x2="1931.521" y2="2238.04" gradientTransform="matrix(0.9842 0.1773 -0.1773 0.9842 -227.7955 -484.8439)">
				<stop  offset="0" style="stop-color:#AA80F9"/>
				<stop  offset="0.9964" style="stop-color:#6165D7"/>
			</linearGradient>
			<path style="fill:url(#SVGID_00000170966721947959412250000010188953602829472400_);" d="M993.888,2182.985
				c16.629,6.165,33.26,12.323,49.889,18.488c16.402-30.232,40.532-75.92,67.874-132.602
				c31.261-64.814,48.945-107.155,56.016-122.579c28.128-61.369,92.749-142.943,255.07-227.173
				c-1.872,37.105-8.3,97.626-33.325,166.378c-71.787,197.22-221.294,255.271-197.302,339.094
				c16.976,59.31,111.163,97.804,175.867,86.04c38.377-6.977,37.107-26.312,98.071-51.2c44.635-18.222,84.283-22.724,161.757-30.984
				c112.738-12.02,104.617-1.519,124.576-9.992c47.47-20.151,154.088-359.31,154.088-359.31
				c19.533-62.181,53.02-147.327,113.981-243.743c61.513-37.533,159.802-108.133,246.353-226.987
				c89.945-123.515,126.732-243.555,142.887-314.718c-3.587-15.092-7.176-30.184-10.763-45.276
				c-66.532,28.743-163.994,79.512-260.151,168.898c-74.596,69.345-65.11,84.499-114.01,117.183
				c-119.302,79.739-224.39,22.035-440.464,50.428c-105.71,13.891-198.116,43.15-243.485,63.258
				C1058.047,1553.515,1005.652,2031.131,993.888,2182.985z"/>
			<g>
				
					<linearGradient id="SVGID_00000067209207286276425710000002977407989572163506_" gradientUnits="userSpaceOnUse" x1="-1975.5868" y1="2910.5986" x2="-1975.5868" y2="2694.5544" gradientTransform="matrix(-0.9127 0.4087 0.4087 0.9127 -1199.5894 -360.3784)">
					<stop  offset="0" style="stop-color:#FFC444"/>
					<stop  offset="0.9964" style="stop-color:#F36F56"/>
				</linearGradient>
				<path style="fill:url(#SVGID_00000067209207286276425710000002977407989572163506_);" d="M1777.263,1276.227
					c0,0-12.408,39.954-32.886,66.948c-18.506,24.393-82.664,25.981-96.356,28.923c-13.691,2.943,16.383,29.893,50.36,42.538
					c33.976,12.643,135.704,30.805,157.13,22.277c21.427-8.525-11.233-16.01-33.747-31.674
					c-22.514-15.664-24.164-68.144-13.98-89.102C1817.968,1295.177,1777.263,1276.227,1777.263,1276.227z"/>
				<g>
					
						<linearGradient id="SVGID_00000056398084201449215270000000493511008529050762_" gradientUnits="userSpaceOnUse" x1="-4099.3213" y1="722.1923" x2="-4170.6958" y2="540.9138" gradientTransform="matrix(-0.9971 -0.0762 -0.0762 0.9971 -2300.6833 362.6912)">
						<stop  offset="0" style="stop-color:#444B8C"/>
						<stop  offset="0.9964" style="stop-color:#3E4177"/>
					</linearGradient>
					<path style="fill:url(#SVGID_00000056398084201449215270000000493511008529050762_);" d="M1845.29,1272.682
						c10.839-12.608,10.07-39.097-4.295-52.992c-10.658-10.309-25.03-10.029-35.501-9.825c-4.847,0.095-38.961,1.17-50.83,24.218
						c-3.772,7.325-4.606,17.751-2.513,26.306c1.079,4.406,3.548,10.027,9.245,20.88c5.056,9.629,4.678,9.277,6.247,12.089
						c3.763,6.754,11.217,18.261,25.745,32.334c1.453-4.41,3.559-9.84,6.682-15.661c1.201-2.239,6.008-10.982,12.778-18.008
						C1826.596,1277.763,1836.816,1282.541,1845.29,1272.682z"/>
					
						<linearGradient id="SVGID_00000090256149085572636400000001838528971311155607_" gradientUnits="userSpaceOnUse" x1="-2128.3003" y1="2848.3376" x2="-2027.2913" y2="2651.9312" gradientTransform="matrix(-0.9127 0.4087 0.4087 0.9127 -1199.5894 -360.3784)">
						<stop  offset="0" style="stop-color:#FFC444"/>
						<stop  offset="0.9964" style="stop-color:#F36F56"/>
					</linearGradient>
					<path style="fill:url(#SVGID_00000090256149085572636400000001838528971311155607_);" d="M1774.371,1311.272
						c0,0,13.542,26.83,44.746,27.301c27.94,0.421,37.014-61.582,20.322-76.234c-5.568-4.889-17.283-7.672-27.145-5.744
						c-5.827,1.138-7.945,3.352-17.498,5.029c-8.811,1.546-11.175,0.392-13.955,2.377c-3.481,2.481-6.406,9.015-2.427,27.676
						c-4.87-5.798-11.071-8.368-15.751-6.601c-0.745,0.282-2.76,1.428-3.99,3.309
						C1754.213,1295.194,1759.984,1304.807,1774.371,1311.272z"/>
					
						<linearGradient id="SVGID_00000146462233643032974740000011785806743173895849_" gradientUnits="userSpaceOnUse" x1="4777.1162" y1="2858.1113" x2="4722.0479" y2="2718.2483" gradientTransform="matrix(0.9127 -0.4087 0.4087 0.9127 -3639.3647 730.7202)">
						<stop  offset="0" style="stop-color:#444B8C"/>
						<stop  offset="0.9964" style="stop-color:#3E4177"/>
					</linearGradient>
					<path style="fill:url(#SVGID_00000146462233643032974740000011785806743173895849_);" d="M1774.409,1275.315
						c0,0,7.759,23.502,13.3,29.707c5.542,6.207,19.508,11.875,34.965,6.693c15.458-5.182,24.559-10.993,24.559-10.993
						s0.481,30.74-3.682,33.786c-4.162,3.05-32.972,14.335-40.237,11.88c-7.266-2.455-22.879-20.409-25.479-30.266
						c-2.6-9.856-3.474-34.403-3.474-34.403L1774.409,1275.315z"/>
				</g>
			</g>
			
				<linearGradient id="SVGID_00000025425900442728066250000017911689514172027313_" gradientUnits="userSpaceOnUse" x1="1035.7303" y1="1984.7897" x2="1785.7753" y2="1984.7897">
				<stop  offset="0" style="stop-color:#AA80F9"/>
				<stop  offset="0.9964" style="stop-color:#6165D7"/>
			</linearGradient>
			<path style="opacity:0.3;fill:url(#SVGID_00000025425900442728066250000017911689514172027313_);" d="M1542.39,2149.524
				c-110.63,24.119-186.539,102.472-209.546,80.052c-20.345-19.826,23.556-96.152,40.026-124.786
				c80.997-140.82,160.015-152.169,178.937-235.444c17.491-76.979-24.86-178.046-89.468-204.837
				c-104.1-43.167-273.829,103.243-350.813,251.925c-50.045,96.654-68.9,208.062-75.796,282.057
				c2.683,0.994,5.365,1.988,8.046,2.982c16.403-30.233,40.533-75.921,67.874-132.603c31.261-64.814,48.945-107.156,56.015-122.579
				c28.129-61.369,92.749-142.943,255.072-227.173c-1.873,37.105-8.3,97.627-33.325,166.378
				c-71.787,197.22-221.295,255.271-197.303,339.093c16.975,59.311,111.161,97.804,175.866,86.041
				c38.378-6.977,37.107-26.312,98.071-51.2c44.634-18.222,84.282-22.724,161.757-30.984
				c112.737-12.019,104.617-1.518,124.576-9.991c9.283-3.94,20.831-20.112,33.396-43.525
				C1718.953,2148.08,1628.042,2130.852,1542.39,2149.524z"/>
		</g>
	</g>
</g>
</svg>
