<?xml version="1.0" encoding="UTF-8"?>
<!DOCTYPE svg PUBLIC "-//W3C//DTD SVG 1.1//EN" "http://www.w3.org/Graphics/SVG/1.1/DTD/svg11.dtd">
<svg xmlns="http://www.w3.org/2000/svg" version="1.1" width="512px" height="512px" style="shape-rendering:geometricPrecision; text-rendering:geometricPrecision; image-rendering:optimizeQuality; fill-rule:evenodd; clip-rule:evenodd" xmlns:xlink="http://www.w3.org/1999/xlink">
<g><path style="opacity:0.996" fill="#5ecdf4" d="M 241.5,-0.5 C 246.167,-0.5 250.833,-0.5 255.5,-0.5C 255.5,75.8333 255.5,152.167 255.5,228.5C 252.206,228.741 249.206,227.908 246.5,226C 222.638,202.472 199.138,178.639 176,154.5C 158.054,129.324 153.054,101.657 161,71.5C 173.916,31.7419 200.749,7.74191 241.5,-0.5 Z"/></g>
<g><path style="opacity:1" fill="#27b2eb" d="M 255.5,-0.5 C 260.167,-0.5 264.833,-0.5 269.5,-0.5C 310.251,7.74191 337.084,31.7419 350,71.5C 357.946,101.657 352.946,129.324 335,154.5C 311.862,178.639 288.362,202.472 264.5,226C 261.794,227.908 258.794,228.741 255.5,228.5C 255.5,152.167 255.5,75.8333 255.5,-0.5 Z"/></g>
<g><path style="opacity:0.994" fill="#ff6319" d="M -0.5,269.5 C -0.5,260.167 -0.5,250.833 -0.5,241.5C 7.74191,200.749 31.7419,173.916 71.5,161C 103.483,153.063 132.483,159.063 158.5,179C 181,201.5 203.5,224 226,246.5C 229.333,252.5 229.333,258.5 226,264.5C 203.833,286.667 181.667,308.833 159.5,331C 124.196,357.511 86.8623,360.511 47.5,340C 21.1633,323.48 5.16333,299.98 -0.5,269.5 Z"/></g>
<g><path style="opacity:0.996" fill="#97d324" d="M 511.5,241.5 C 511.5,250.833 511.5,260.167 511.5,269.5C 503.258,310.251 479.258,337.084 439.5,350C 409.922,357.725 382.589,353.058 357.5,336C 333.028,312.528 308.861,288.695 285,264.5C 281.667,258.5 281.667,252.5 285,246.5C 308.861,222.305 333.028,198.472 357.5,175C 382.589,157.942 409.922,153.275 439.5,161C 479.258,173.916 503.258,200.749 511.5,241.5 Z"/></g>
<g><path style="opacity:0.995" fill="#ffda2d" d="M 255.5,282.5 C 255.5,358.833 255.5,435.167 255.5,511.5C 250.833,511.5 246.167,511.5 241.5,511.5C 200.749,503.258 173.916,479.258 161,439.5C 153.054,409.343 158.054,381.676 176,356.5C 199.138,332.361 222.638,308.528 246.5,285C 249.312,283.451 252.312,282.618 255.5,282.5 Z"/></g>
<g><path style="opacity:1" fill="#fdbf00" d="M 255.5,282.5 C 258.688,282.618 261.688,283.451 264.5,285C 288.362,308.528 311.862,332.361 335,356.5C 352.946,381.676 357.946,409.343 350,439.5C 337.084,479.258 310.251,503.258 269.5,511.5C 264.833,511.5 260.167,511.5 255.5,511.5C 255.5,435.167 255.5,358.833 255.5,282.5 Z"/></g>
</svg>
